<svg xmlns="http://www.w3.org/2000/svg" viewBox="0 0 53.01 29"><defs><style>.cls-1{fill:#fff;stroke:#1d1d1b;stroke-width:0.1px;}.cls-1,.cls-3,.cls-4,.cls-6{stroke-miterlimit:10;}.cls-2{fill:#1e1e1c;}.cls-3,.cls-5,.cls-6{fill:#9c7837;}.cls-3{stroke:#0b3d4d;}.cls-4{fill:none;}.cls-4,.cls-6{stroke:#fff;}</style></defs><title>Renzary_hover</title><g id="Calque_11" data-name="Calque 11"><path class="cls-1" d="M938,562.74a2.13,2.13,0,0,0,.67-.47,2.19,2.19,0,0,0,.45-.67,2,2,0,0,0,.17-.84,1.9,1.9,0,0,0-.17-.83,2.08,2.08,0,0,0-.45-.67,2.1,2.1,0,0,0-.67-.46,2.14,2.14,0,0,0-.84-.17h-3V563l4.8,4.8h-.54l-4.26-4.26v3.88h.18v.38h-.74v-.38h.18v-8.74h-.18v-.36h3.57a2.46,2.46,0,0,1,1.78.73,2.58,2.58,0,0,1,.54.79,2.43,2.43,0,0,1,.19,1,2.48,2.48,0,0,1-.19,1,2.62,2.62,0,0,1-.54.8,2.6,2.6,0,0,1-.8.53,2.32,2.32,0,0,1-1,.2h-1.69l4.46,4.48h-.54l-4.85-4.84h2.62A2.14,2.14,0,0,0,938,562.74Z" transform="translate(-933.51 -558.2)"/><path class="cls-1" d="M944.91,563.23h-3.23v-5h5.42v.56h-.38v-.17h-4.66v4.21h3.23Zm1.83,4h.38v.56h-5.44v-4.19h2.91l-.38.38h-2.15v3.43h4.68Z" transform="translate(-933.51 -558.2)"/><path class="cls-1" d="M949.3,558.63H949v-.38h.5l5.18,5.18v-5.18h.56v.38H955v5.74Zm5.92,8.74v.38h-.74v-.38h.18V565l-5.13-5.14v7.54h.18v.38H949v-.38h.19V558.9l5.89,5.9v2.57Z" transform="translate(-933.51 -558.2)"/><path class="cls-1" d="M963,567.75h-5.84l5.84-9v.7l-5.14,7.88h4.76v-.18H963Zm-5.77-9.5h5.84l-5.84,8.85v-.68l5.14-7.79h-4.76v.18h-.38Z" transform="translate(-933.51 -558.2)"/><path class="cls-1" d="M967.37,558.25h.42l-2.87,9.5h-.42Zm3.14,9.12h.2v.38H970v-.38h.11l-2.13-7-2.24,7.41h-.42L968,559Z" transform="translate(-933.51 -558.2)"/><path class="cls-1" d="M977.09,562.74a2.19,2.19,0,0,0,1.13-1.14,2.14,2.14,0,0,0,.17-.84,2.05,2.05,0,0,0-.17-.83,2.08,2.08,0,0,0-.45-.67,2.15,2.15,0,0,0-.68-.46,2.05,2.05,0,0,0-.83-.17h-3V563l4.8,4.8h-.54l-4.26-4.26v3.88h.17v.38h-.73v-.38h.18v-8.74h-.18v-.36h3.57a2.52,2.52,0,0,1,1,.19,2.5,2.5,0,0,1,1.33,1.33,2.44,2.44,0,0,1,.2,1,2.49,2.49,0,0,1-.2,1,2.6,2.6,0,0,1-.53.8,2.72,2.72,0,0,1-.8.53,2.36,2.36,0,0,1-1,.2h-1.7l4.47,4.48h-.55l-4.84-4.84h2.62A2.05,2.05,0,0,0,977.09,562.74Z" transform="translate(-933.51 -558.2)"/><path class="cls-1" d="M985.63,558.25,983,562.62l-2.34-4h-.26v-.38h.73v.38h0l1.91,3.23,2.15-3.61Zm-2,4.72v4.4h.18v.38h-.74v-.38h.18v-4.56h0l2.7-4.56h.45Z" transform="translate(-933.51 -558.2)"/></g><g id="Calque_16" data-name="Calque 16"><g id="Calque_1" data-name="Calque 1"><rect class="cls-2" x="951.12" y="569.43" width="17.77" height="17.77" rx="8.88" ry="8.88" transform="translate(-1061.27 290) rotate(-45)"/><rect class="cls-3" x="951.82" y="570.13" width="16.37" height="16.37" rx="8.18" ry="8.18" transform="translate(-1061.27 290.01) rotate(-45)"/></g><g id="Calque_3" data-name="Calque 3"><circle class="cls-4" cx="26.5" cy="20.12" r="5.66"/><rect class="cls-5" x="27.63" y="19.63" width="1.69" height="7.45"/><rect class="cls-5" x="20.08" y="16.03" width="7.57" height="3.59"/><rect class="cls-5" x="24.2" y="19.24" width="9.38" height="3.18"/><circle class="cls-6" cx="26.5" cy="20.12" r="2.82"/><line class="cls-4" x1="28.79" y1="15.02" x2="28.79" y2="18.4"/><line class="cls-4" x1="26.5" y1="14.33" x2="26.5" y2="17.71"/><line class="cls-4" x1="25.43" y1="22.63" x2="25.43" y2="26.01"/><line class="cls-4" x1="20.84" y1="20.12" x2="23.68" y2="20.12"/><line class="cls-4" x1="25.43" y1="22.92" x2="31.52" y2="22.92"/></g></g></svg>