<svg xmlns="http://www.w3.org/2000/svg" viewBox="0 0 44.67 29"><defs><style>.cls-1{fill:#fff;stroke:#1d1d1b;stroke-width:0.1px;}.cls-1,.cls-3,.cls-4,.cls-6{stroke-miterlimit:10;}.cls-2{fill:#1e1e1c;}.cls-3,.cls-5,.cls-6{fill:#9c7837;}.cls-3{stroke:#0b3d4d;}.cls-4{fill:none;}.cls-4,.cls-6{stroke:#fff;}</style></defs><title>Reskan_hover</title><g id="Calque_13" data-name="Calque 13"><path class="cls-1" d="M942.12,562.74a2,2,0,0,0,.67-.46,2.12,2.12,0,0,0,.45-.68,1.93,1.93,0,0,0,.17-.83,2,2,0,0,0-.17-.84,2.19,2.19,0,0,0-.45-.67,2.08,2.08,0,0,0-.67-.45,2,2,0,0,0-.84-.17h-3V563l4.81,4.81h-.55l-4.26-4.26v3.88h.18v.38h-.73v-.38h.17v-8.74h-.17v-.37h3.56a2.57,2.57,0,0,1,1.78.73,2.57,2.57,0,0,1,.54.8,2.4,2.4,0,0,1,.19,1,2.52,2.52,0,0,1-.19,1,2.57,2.57,0,0,1-.54.8,2.57,2.57,0,0,1-1.78.73h-1.69l4.46,4.48h-.54l-4.84-4.85h2.61A2,2,0,0,0,942.12,562.74Z" transform="translate(-937.67 -558.19)"/><path class="cls-1" d="M949.06,563.24h-3.23v-5h5.43v.55h-.38v-.16h-4.67v4.21h3.23Zm1.83,4h.38v.56h-5.44v-4.2h2.92l-.38.38h-2.16v3.44h4.68Z" transform="translate(-937.67 -558.19)"/><path class="cls-1" d="M958.47,566.09a2.78,2.78,0,0,1-.42.67,3,3,0,0,1-.59.53,2.57,2.57,0,0,1-.73.34,2.87,2.87,0,0,1-.82.13h-3.2v-.56h.38v.18h2.82a2.43,2.43,0,0,0,2.1-1.23l-5.28-5.26.07-.47Zm-.15-7.29v-.16h-2.8a2.32,2.32,0,0,0-1.27.36,2.41,2.41,0,0,0-.89,1l5.32,5.32,0,.2c0,.06,0,.14,0,.26l-5.7-5.7a3,3,0,0,1,1.14-1.39,2.85,2.85,0,0,1,1.48-.43h3.18v.56Z" transform="translate(-937.67 -558.19)"/><path class="cls-1" d="M960.59,558.65h-.18v-.39h.74v.39H961v3.84l4.23-4.22h.55l-5.16,5.14ZM962,563l4.34,4.35h.3v.38h-.46l0,0-4.43-4.42-.71.7v3.37h.18v.38h-.74v-.38h.18v-3.52l5.59-5.59h.54Z" transform="translate(-937.67 -558.19)"/><path class="cls-1" d="M971.06,558.26h.42l-2.87,9.5h-.42Zm3.14,9.12h.2v.38h-.73v-.38h.11l-2.13-7-2.24,7.41H969l2.66-8.8Z" transform="translate(-937.67 -558.19)"/><path class="cls-1" d="M976.37,558.64H976v-.38h.5l5.18,5.18v-5.18h.56v.38h-.17v5.74Zm5.91,8.74v.38h-.73v-.38h.18l0-2.41-5.12-5.14v7.55h.17v.38H976v-.38h.19v-8.47l5.88,5.9,0,2.57Z" transform="translate(-937.67 -558.19)"/></g><g id="Calque_16" data-name="Calque 16"><g id="Calque_1" data-name="Calque 1"><rect class="cls-2" x="951.12" y="569.43" width="17.77" height="17.77" rx="8.88" ry="8.88" transform="translate(-1065.42 290.01) rotate(-45)"/><rect class="cls-3" x="951.82" y="570.13" width="16.37" height="16.37" rx="8.18" ry="8.18" transform="translate(-1065.42 290.02) rotate(-45)"/></g><g id="Calque_3" data-name="Calque 3"><circle class="cls-4" cx="22.35" cy="20.13" r="5.66"/><rect class="cls-5" x="23.48" y="19.64" width="1.69" height="7.45"/><rect class="cls-5" x="15.93" y="16.04" width="7.57" height="3.59"/><rect class="cls-5" x="20.05" y="19.25" width="9.38" height="3.18"/><circle class="cls-6" cx="22.35" cy="20.13" r="2.82"/><line class="cls-4" x1="24.64" y1="15.03" x2="24.64" y2="18.41"/><line class="cls-4" x1="22.35" y1="14.34" x2="22.35" y2="17.72"/><line class="cls-4" x1="21.28" y1="22.64" x2="21.28" y2="26.02"/><line class="cls-4" x1="16.69" y1="20.13" x2="19.53" y2="20.13"/><line class="cls-4" x1="21.28" y1="22.93" x2="27.37" y2="22.93"/></g></g></svg>