<svg xmlns="http://www.w3.org/2000/svg" viewBox="0 0 71.91 29.2"><defs><style>.cls-1{fill:#fff;stroke:#1d1d1b;stroke-width:0.1px;}.cls-1,.cls-3,.cls-4,.cls-6{stroke-miterlimit:10;}.cls-2{fill:#1e1e1c;}.cls-3,.cls-5,.cls-6{fill:#9c7837;}.cls-3{stroke:#0b3d4d;}.cls-4{fill:none;}.cls-4,.cls-6{stroke:#fff;}</style></defs><title>Targuenor2</title><g id="Calque_9" data-name="Calque 9"><path class="cls-1" d="M929.88,558.23v.38h-5.75v-.38Zm-5.75,1.08v-.39h5.75v.39H927.2v8h.17v.38h-.73v-.38h.18v-8Z" transform="translate(-924.08 -558)"/><path class="cls-1" d="M933.76,558.23h.42l-2.87,9.5h-.42Zm3.14,9.12h.2v.38h-.73v-.38h.11l-2.14-7-2.23,7.41h-.42l2.65-8.8Z" transform="translate(-924.08 -558)"/><path class="cls-1" d="M943.48,562.71a2,2,0,0,0,.67-.46,2.15,2.15,0,0,0,.46-.68,2.05,2.05,0,0,0,.17-.83,2.14,2.14,0,0,0-.17-.84,2.22,2.22,0,0,0-.46-.67,2.14,2.14,0,0,0-1.5-.62h-3v4.31l4.8,4.81h-.54l-4.26-4.26v3.88h.17v.38h-.73v-.38h.18v-8.74h-.18v-.37h3.57a2.44,2.44,0,0,1,1,.2,2.5,2.5,0,0,1,.81.54,2.55,2.55,0,0,1,.53.79,2.44,2.44,0,0,1,.2,1,2.53,2.53,0,0,1-.2,1,2.72,2.72,0,0,1-.53.8,2.64,2.64,0,0,1-.81.53,2.44,2.44,0,0,1-1,.2H941l4.47,4.48h-.55L940,562.88h2.62A1.93,1.93,0,0,0,943.48,562.71Z" transform="translate(-924.08 -558)"/><path class="cls-1" d="M953.37,561.36h-.74V561h.17a3,3,0,0,0-.3-.93,2.83,2.83,0,0,0-.59-.74,2.64,2.64,0,0,0-.8-.5,2.45,2.45,0,0,0-1-.19,2.58,2.58,0,0,0-1,.21,2.65,2.65,0,0,0-.85.57,2.76,2.76,0,0,0-.57.85,2.63,2.63,0,0,0-.21,1v3.4a2.58,2.58,0,0,0,.21,1,2.71,2.71,0,0,0,.57.84,2.65,2.65,0,0,0,.85.57,2.66,2.66,0,0,0,2.07,0,2.65,2.65,0,0,0,.85-.57,2.71,2.71,0,0,0,.57-.84,2.58,2.58,0,0,0,.21-1v-.8H949l.38-.38h3.77v1.18a3.06,3.06,0,0,1-.89,2.15,3.06,3.06,0,0,1-1,.65,2.93,2.93,0,0,1-1.18.24,3,3,0,0,1-1.19-.24,3.18,3.18,0,0,1-1-.65,2.81,2.81,0,0,1-.65-1,2.93,2.93,0,0,1-.24-1.18v-3.4a2.93,2.93,0,0,1,.24-1.18,2.85,2.85,0,0,1,.65-1,3.21,3.21,0,0,1,1-.66,3.05,3.05,0,0,1,2.3,0,3.46,3.46,0,0,1,.93.58,2.86,2.86,0,0,1,.66.87,3.24,3.24,0,0,1,.33,1.08h.19Zm-3.26,1.47h3.08v.38h-3.46Z" transform="translate(-924.08 -558)"/><path class="cls-1" d="M961.7,558.23v.38h-.18v1l-5.88,5.89-.06-.33a2.54,2.54,0,0,1,0-.43v-6.13h-.18v-.38h.74v.38h-.18v6.06l5.21-5.21v-.85H961v-.38Zm-.18,1.84v4.67a2.79,2.79,0,0,1-.24,1.15,3.06,3.06,0,0,1-1.59,1.6,2.83,2.83,0,0,1-1.16.24,3,3,0,0,1-1.6-.47,3.11,3.11,0,0,1-1.18-1.42Zm-5.31,5.85a2.63,2.63,0,0,0,1,1,2.5,2.5,0,0,0,1.35.39,2.45,2.45,0,0,0,1-.21,2.61,2.61,0,0,0,.83-.55,2.64,2.64,0,0,0,.56-.83,2.69,2.69,0,0,0,.2-1V561Z" transform="translate(-924.08 -558)"/><path class="cls-1" d="M967.1,563.21h-3.23v-5h5.42v.56h-.38v-.17h-4.66v4.21h3.23Zm1.83,4h.38v.56h-5.44v-4.2h2.91l-.38.38h-2.15v3.44h4.68Z" transform="translate(-924.08 -558)"/><path class="cls-1" d="M971.49,558.61h-.35v-.38h.5l5.18,5.18v-5.18h.56v.38h-.16v5.74Zm5.92,8.74v.38h-.74v-.38h.18v-2.41l-5.13-5.14v7.55h.17v.38h-.74v-.38h.19v-8.47l5.89,5.9v2.57Z" transform="translate(-924.08 -558)"/><path class="cls-1" d="M987.55,558.12v.54l-8.19,8.2v-.54l.79-.81a4,4,0,0,1-.79-2.41,4.07,4.07,0,0,1,.32-1.59,4.15,4.15,0,0,1,.88-1.3,4.2,4.2,0,0,1,1.3-.88,4,4,0,0,1,2.87-.12,4,4,0,0,1,1.15.59Zm-.89,2.43a4.12,4.12,0,0,1,.89,2.55,4.06,4.06,0,0,1-.31,1.59,4.33,4.33,0,0,1-.88,1.3,4.2,4.2,0,0,1-1.3.88,3.9,3.9,0,0,1-1.59.33,4.18,4.18,0,0,1-1.36-.23,4.24,4.24,0,0,1-1.19-.67l-1.56,1.55v-.54l8.19-8.2v.54Zm-3.19-1.15a3.47,3.47,0,0,0-1.44.29,3.71,3.71,0,0,0-1.18.79,3.75,3.75,0,0,0-.8,1.17,3.52,3.52,0,0,0-.3,1.45,3.92,3.92,0,0,0,.17,1.13,3.37,3.37,0,0,0,.53,1l5.16-5.17A3.62,3.62,0,0,0,983.47,559.4Zm3.7,3.7a3.78,3.78,0,0,0-.19-1.21,3.51,3.51,0,0,0-.59-1.07l-5.2,5.21a3.46,3.46,0,0,0,1.07.58,3.54,3.54,0,0,0,1.21.21,3.67,3.67,0,0,0,1.44-.29,4,4,0,0,0,1.18-.8,3.86,3.86,0,0,0,.79-1.19A3.43,3.43,0,0,0,987.17,563.1Z" transform="translate(-924.08 -558)"/><path class="cls-1" d="M993.94,562.71a2,2,0,0,0,.67-.46,2.12,2.12,0,0,0,.45-.68,1.9,1.9,0,0,0,.17-.83,2,2,0,0,0-.17-.84,2.19,2.19,0,0,0-.45-.67,2.08,2.08,0,0,0-.67-.45,2.14,2.14,0,0,0-.84-.17h-3v4.31l4.8,4.81h-.54l-4.26-4.26v3.88h.18v.38h-.73v-.38h.17v-8.74h-.17v-.37h3.56a2.49,2.49,0,0,1,1,.2,2.46,2.46,0,0,1,.8.54,2.41,2.41,0,0,1,.73,1.76,2.52,2.52,0,0,1-.19,1,2.57,2.57,0,0,1-.54.8,2.6,2.6,0,0,1-.8.53,2.49,2.49,0,0,1-1,.2h-1.69l4.46,4.48h-.54l-4.85-4.85h2.62A2,2,0,0,0,993.94,562.71Z" transform="translate(-924.08 -558)"/></g><g id="Calque_16" data-name="Calque 16"><g id="Calque_1" data-name="Calque 1"><rect class="cls-2" x="951.12" y="569.43" width="17.77" height="17.77" rx="8.88" ry="8.88" transform="translate(-1051.83 290.21) rotate(-45)"/><rect class="cls-3" x="951.82" y="570.13" width="16.37" height="16.37" rx="8.18" ry="8.18" transform="translate(-1051.83 290.21) rotate(-45)"/></g><g id="Calque_3" data-name="Calque 3"><circle class="cls-4" cx="35.94" cy="20.32" r="5.66"/><rect class="cls-5" x="37.07" y="19.83" width="1.69" height="7.45"/><rect class="cls-5" x="29.51" y="16.23" width="7.57" height="3.59"/><rect class="cls-5" x="33.64" y="19.44" width="9.38" height="3.18"/><circle class="cls-6" cx="35.94" cy="20.32" r="2.82"/><line class="cls-4" x1="38.23" y1="15.22" x2="38.23" y2="18.6"/><line class="cls-4" x1="35.94" y1="14.53" x2="35.94" y2="17.91"/><line class="cls-4" x1="34.87" y1="22.83" x2="34.87" y2="26.21"/><line class="cls-4" x1="30.28" y1="20.32" x2="33.12" y2="20.32"/><line class="cls-4" x1="34.87" y1="23.12" x2="40.96" y2="23.12"/></g></g></svg>