<svg xmlns="http://www.w3.org/2000/svg" viewBox="0 0 38.89 29.2"><defs><style>.cls-1{fill:#fff;stroke:#1d1d1b;stroke-width:0.1px;}.cls-1,.cls-3,.cls-4,.cls-6,.cls-7,.cls-9{stroke-miterlimit:10;}.cls-2{fill:#1e1e1c;}.cls-3,.cls-5,.cls-6{fill:#9c7837;}.cls-3{stroke:#0b3d4d;}.cls-4{fill:none;}.cls-4,.cls-6,.cls-9{stroke:#fff;}.cls-7,.cls-8,.cls-9{fill:#0b3d4d;}.cls-7{stroke:#9c7837;}</style></defs><title>Xeros1</title><g id="Calque_7" data-name="Calque 7"><path class="cls-1" d="M940.9,558.61h-.26v-.39h.73v.39h0l1.91,3.3,2.15-3.69h.43l-2.58,4.45Zm5.49,8.72h.25v.38h-.74v-.38h0l-2.29-4-2.3,4h0v.38h-.74v-.38h.25l5.29-9.11h.45L943.87,563Z" transform="translate(-940.59 -558)"/><path class="cls-1" d="M951.71,563.21h-3.23v-5h5.43v.56h-.38v-.17h-4.67v4.21h3.23Zm1.83,4h.38v.56h-5.44v-4.2h2.92l-.38.38h-2.16v3.44h4.68Z" transform="translate(-940.59 -558)"/><path class="cls-1" d="M960.14,562.71a2,2,0,0,0,.67-.46,2.15,2.15,0,0,0,.46-.68,2.05,2.05,0,0,0,.17-.83,2.14,2.14,0,0,0-.17-.84,2.22,2.22,0,0,0-.46-.67,2.14,2.14,0,0,0-1.5-.62h-3v4.31l4.8,4.81h-.54l-4.26-4.26v3.88h.17v.38h-.73v-.38h.18v-8.74h-.18v-.37h3.57a2.44,2.44,0,0,1,1,.2,2.5,2.5,0,0,1,.81.54,2.55,2.55,0,0,1,.53.79,2.44,2.44,0,0,1,.2,1,2.53,2.53,0,0,1-.2,1,2.72,2.72,0,0,1-.53.8,2.64,2.64,0,0,1-.81.53,2.44,2.44,0,0,1-1,.2h-1.7l4.47,4.48h-.55l-4.84-4.85h2.62A1.93,1.93,0,0,0,960.14,562.71Z" transform="translate(-940.59 -558)"/><path class="cls-1" d="M971.83,558.12v.54l-8.19,8.2v-.54l.79-.81a3.91,3.91,0,0,1-.79-2.41,4.07,4.07,0,0,1,.32-1.59,4.12,4.12,0,0,1,.87-1.3,4.25,4.25,0,0,1,1.31-.88,3.88,3.88,0,0,1,1.6-.33,4,4,0,0,1,1.27.21,3.87,3.87,0,0,1,1.14.59Zm-.9,2.43a3.94,3.94,0,0,1,.67,1.2,4.16,4.16,0,0,1,.23,1.35,4.07,4.07,0,0,1-.32,1.59,4.12,4.12,0,0,1-.87,1.3,4.25,4.25,0,0,1-1.31.88,3.82,3.82,0,0,1-1.58.33,4.13,4.13,0,0,1-1.36-.23,4.24,4.24,0,0,1-1.19-.67l-1.56,1.55v-.54l8.19-8.2v.54Zm-3.18-1.15a3.51,3.51,0,0,0-1.45.29,3.82,3.82,0,0,0-1.18.79,3.93,3.93,0,0,0-.8,1.17,3.68,3.68,0,0,0-.29,1.45,3.92,3.92,0,0,0,.17,1.13,3.34,3.34,0,0,0,.52,1l5.17-5.17A3.65,3.65,0,0,0,967.75,559.4Zm3.7,3.7a3.79,3.79,0,0,0-.2-1.21,3.31,3.31,0,0,0-.59-1.07L965.47,566a3.41,3.41,0,0,0,1.06.58,3.66,3.66,0,0,0,2.65-.08,4,4,0,0,0,1.19-.8,4.05,4.05,0,0,0,.79-1.19A3.6,3.6,0,0,0,971.45,563.1Z" transform="translate(-940.59 -558)"/><path class="cls-1" d="M979.2,566.06a2.91,2.91,0,0,1-.42.67,3.29,3.29,0,0,1-.59.53,2.77,2.77,0,0,1-.74.34,2.51,2.51,0,0,1-.82.13h-3.2v-.56h.38v.18h2.82a2.38,2.38,0,0,0,1.22-.33,2.45,2.45,0,0,0,.89-.89l-5.28-5.27.07-.47Zm-.15-7.29v-.16h-2.81A2.37,2.37,0,0,0,975,559a2.48,2.48,0,0,0-.89,1l5.32,5.32,0,.2c0,.06,0,.14,0,.26l-5.7-5.7a3,3,0,0,1,1.14-1.39,2.84,2.84,0,0,1,1.48-.42h3.19v.55Z" transform="translate(-940.59 -558)"/></g><g id="Calque_17" data-name="Calque 17"><g id="Calque_1" data-name="Calque 1"><rect class="cls-2" x="951.12" y="569.43" width="17.77" height="17.77" rx="8.88" ry="8.88" transform="translate(-1068.34 290.21) rotate(-45)"/><rect class="cls-3" x="951.82" y="570.13" width="16.37" height="16.37" rx="8.18" ry="8.18" transform="translate(-1068.34 290.21) rotate(-45)"/></g><g id="Calque_3" data-name="Calque 3"><circle class="cls-4" cx="19.43" cy="20.32" r="5.66"/><rect class="cls-5" x="20.56" y="19.83" width="1.69" height="7.79"/><rect class="cls-5" x="12.79" y="16.23" width="7.79" height="3.59"/><rect class="cls-5" x="17.13" y="19.44" width="9.71" height="3.18"/><circle class="cls-6" cx="19.43" cy="20.32" r="2.82"/><line class="cls-4" x1="21.72" y1="15.22" x2="21.72" y2="18.6"/><line class="cls-4" x1="19.43" y1="14.53" x2="19.43" y2="17.91"/><line class="cls-4" x1="18.36" y1="22.83" x2="18.36" y2="26.21"/><line class="cls-4" x1="13.77" y1="20.32" x2="16.61" y2="20.32"/><line class="cls-4" x1="18.36" y1="23.12" x2="24.45" y2="23.12"/></g><g id="Calque_2" data-name="Calque 2"><rect class="cls-2" x="951.12" y="569.43" width="17.77" height="17.77" rx="8.88" ry="8.88" transform="translate(-1068.34 290.21) rotate(-45)"/><rect class="cls-7" x="951.82" y="570.13" width="16.37" height="16.37" rx="8.18" ry="8.18" transform="translate(-1068.34 290.21) rotate(-45)"/><circle class="cls-4" cx="19.43" cy="20.32" r="5.66"/><rect class="cls-8" x="20.56" y="19.83" width="1.69" height="7.2"/><rect class="cls-8" x="13.07" y="16.23" width="7.51" height="3.59"/><rect class="cls-8" x="17.13" y="19.44" width="9.16" height="3.18"/><circle class="cls-9" cx="19.43" cy="20.32" r="2.82"/><line class="cls-4" x1="21.72" y1="15.22" x2="21.72" y2="18.6"/><line class="cls-4" x1="19.43" y1="14.53" x2="19.43" y2="17.91"/><line class="cls-4" x1="18.36" y1="22.83" x2="18.36" y2="26.21"/><line class="cls-4" x1="13.77" y1="20.32" x2="16.61" y2="20.32"/><line class="cls-4" x1="18.36" y1="23.12" x2="24.45" y2="23.12"/></g></g></svg>