{"asset":{"generator":"FBX2glTF v0.9.7","version":"2.0"},"scene":0,"buffers":[{"byteLength":34928104,"uri":"61073a47fd81d1c8e5b36cdb55631054.bin"}],"bufferViews":[{"buffer":0,"byteLength":14615496,"byteOffset":0,"target":34963},{"buffer":0,"byteLength":7617228,"byteOffset":14615496,"target":34962},{"buffer":0,"byteLength":7617228,"byteOffset":22232724,"target":34962},{"buffer":0,"byteLength":5078152,"byteOffset":29849952,"target":34962}],"scenes":[{"name":"Root Scene","nodes":[0]}],"accessors":[{"componentType":5125,"type":"SCALAR","count":3653874,"bufferView":0,"byteOffset":0},{"componentType":5126,"type":"VEC3","count":634769,"bufferView":1,"byteOffset":0,"min":[-2.14163851737976,0.0781755894422531,-1.51390027999878],"max":[2.2773551940918,0.370156854391098,1.05435013771057]},{"componentType":5126,"type":"VEC3","count":634769,"bufferView":2,"byteOffset":0},{"componentType":5126,"type":"VEC2","count":634769,"bufferView":3,"byteOffset":0}],"samplers":[{}],"materials":[{"name":"lambert1","alphaMode":"OPAQUE","extras":{"fromFBX":{"shadingModel":"Lambert","isTruePBR":false}},"pbrMetallicRoughness":{"baseColorFactor":[0.400000005960464,0.400000005960464,0.400000005960464,1],"metallicFactor":0.200000002980232,"roughnessFactor":0.800000011920929}}],"meshes":[{"name":"Cont26","primitives":[{"material":0,"mode":4,"attributes":{"NORMAL":2,"POSITION":1,"TEXCOORD_0":3},"indices":0}]}],"nodes":[{"name":"RootNode","translation":[0,0,0],"rotation":[0,0,0,1],"scale":[1,1,1],"children":[1]},{"name":"Cont26","translation":[0,0,0],"rotation":[0,0,0,1],"scale":[1,1,1],"mesh":0}]}