<svg xmlns="http://www.w3.org/2000/svg" viewBox="0 0 50.94 29"><defs><style>.cls-1{fill:#fff;stroke:#1d1d1b;stroke-width:0.1px;}.cls-1,.cls-3,.cls-4,.cls-6,.cls-7,.cls-9{stroke-miterlimit:10;}.cls-2{fill:#1e1e1c;}.cls-3,.cls-5,.cls-6{fill:#9c7837;}.cls-3{stroke:#0b3d4d;}.cls-4{fill:none;}.cls-4,.cls-6,.cls-9{stroke:#fff;}.cls-7,.cls-8,.cls-9{fill:#0b3d4d;}.cls-7{stroke:#9c7837;}</style></defs><title>Eltagar1</title><g id="Calque_8" data-name="Calque 8"><path class="cls-1" d="M938.06,563.22h-3.23v-5h5.42v.56h-.38v-.16h-4.66v4.2h3.23Zm1.83,4h.38v.55h-5.44v-4.19h2.91l-.38.38h-2.15v3.43h4.68Z" transform="translate(-934.78 -558.19)"/><path class="cls-1" d="M942.27,567.05v-8.43h-.17v-.38h.73v.38h-.18v8h5.2v.39Zm0,.31h5.58v.38h-5.58Z" transform="translate(-934.78 -558.19)"/><path class="cls-1" d="M954,558.24v.38h-5.76v-.38Zm-5.76,1.09v-.39H954v.39h-2.69v8h.18v.38h-.74v-.38h.18v-8Z" transform="translate(-934.78 -558.19)"/><path class="cls-1" d="M957.88,558.24h.42l-2.88,9.5H955Zm3.13,9.12h.2v.38h-.73v-.38h.11l-2.13-7-2.24,7.41h-.42l2.66-8.79Z" transform="translate(-934.78 -558.19)"/><path class="cls-1" d="M969.26,561.38h-.73V561h.16a2.7,2.7,0,0,0-1.69-2.18,2.56,2.56,0,0,0-1-.18,2.61,2.61,0,0,0-1,.21,2.65,2.65,0,0,0-1.42,1.42,2.58,2.58,0,0,0-.21,1v3.41a2.53,2.53,0,0,0,.21,1,2.65,2.65,0,0,0,.57.85,3,3,0,0,0,.85.57,2.68,2.68,0,0,0,2.08,0,3.11,3.11,0,0,0,.84-.57,2.65,2.65,0,0,0,.57-.85,2.53,2.53,0,0,0,.21-1v-.8h-3.77l.38-.38h3.77v1.18a3.14,3.14,0,0,1-.23,1.18,3.09,3.09,0,0,1-.66,1,3,3,0,0,1-1,.65,2.93,2.93,0,0,1-1.18.24,2.9,2.9,0,0,1-1.18-.24,3.24,3.24,0,0,1-1-.65,3.09,3.09,0,0,1-.66-1,3,3,0,0,1-.24-1.18v-3.41a2.93,2.93,0,0,1,.24-1.18,3.13,3.13,0,0,1,.66-1,3.06,3.06,0,0,1,2.15-.89,3,3,0,0,1,2.7,1.65,3.14,3.14,0,0,1,.33,1.09h.19ZM966,562.84h3.08v.38h-3.46Z" transform="translate(-934.78 -558.19)"/><path class="cls-1" d="M973.94,558.24h.42l-2.88,9.5h-.42Zm3.13,9.12h.21v.38h-.73v-.38h.1l-2.13-7-2.23,7.41h-.43l2.66-8.79Z" transform="translate(-934.78 -558.19)"/><path class="cls-1" d="M983.66,562.73a2.1,2.1,0,0,0,.67-.46,2.47,2.47,0,0,0,.46-.68,2.14,2.14,0,0,0,0-1.67,2.22,2.22,0,0,0-1.13-1.13,2.12,2.12,0,0,0-.83-.17h-3v4.32l4.81,4.8h-.55l-4.26-4.26v3.88H980v.38h-.73v-.38h.17v-8.74h-.17v-.36h3.57a2.43,2.43,0,0,1,1,.19,2.56,2.56,0,0,1,1.34,1.33,2.48,2.48,0,0,1,0,2,2.53,2.53,0,0,1-1.34,1.34,2.43,2.43,0,0,1-1,.19h-1.7l4.46,4.48h-.54l-4.84-4.84h2.62A2.12,2.12,0,0,0,983.66,562.73Z" transform="translate(-934.78 -558.19)"/></g><g id="Calque_16" data-name="Calque 16"><g id="Calque_1" data-name="Calque 1"><rect class="cls-2" x="951.12" y="569.43" width="17.77" height="17.77" rx="8.88" ry="8.88" transform="translate(-1062.53 290.01) rotate(-45)"/><rect class="cls-3" x="951.82" y="570.13" width="16.37" height="16.37" rx="8.18" ry="8.18" transform="translate(-1062.53 290.02) rotate(-45)"/></g><g id="Calque_3" data-name="Calque 3"><circle class="cls-4" cx="25.24" cy="20.13" r="5.66"/><rect class="cls-5" x="26.37" y="19.64" width="1.69" height="7.45"/><rect class="cls-5" x="18.82" y="16.04" width="7.57" height="3.59"/><rect class="cls-5" x="22.94" y="19.25" width="9.38" height="3.18"/><circle class="cls-6" cx="25.24" cy="20.13" r="2.82"/><line class="cls-4" x1="27.53" y1="15.03" x2="27.53" y2="18.41"/><line class="cls-4" x1="25.24" y1="14.34" x2="25.24" y2="17.72"/><line class="cls-4" x1="24.17" y1="22.64" x2="24.17" y2="26.02"/><line class="cls-4" x1="19.58" y1="20.13" x2="22.42" y2="20.13"/><line class="cls-4" x1="24.17" y1="22.93" x2="30.26" y2="22.93"/></g></g><g id="Calque_17" data-name="Calque 17"><g id="Calque_1-2" data-name="Calque 1"><rect class="cls-2" x="951.12" y="569.43" width="17.77" height="17.77" rx="8.88" ry="8.88" transform="translate(-1062.53 290.01) rotate(-45)"/><rect class="cls-3" x="951.82" y="570.13" width="16.37" height="16.37" rx="8.18" ry="8.18" transform="translate(-1062.53 290.02) rotate(-45)"/></g><g id="Calque_3-2" data-name="Calque 3"><circle class="cls-4" cx="25.24" cy="20.13" r="5.66"/><rect class="cls-5" x="26.37" y="19.64" width="1.69" height="7.79"/><rect class="cls-5" x="18.6" y="16.04" width="7.79" height="3.59"/><rect class="cls-5" x="22.94" y="19.25" width="9.71" height="3.18"/><circle class="cls-6" cx="25.24" cy="20.13" r="2.82"/><line class="cls-4" x1="27.53" y1="15.03" x2="27.53" y2="18.41"/><line class="cls-4" x1="25.24" y1="14.34" x2="25.24" y2="17.72"/><line class="cls-4" x1="24.17" y1="22.64" x2="24.17" y2="26.02"/><line class="cls-4" x1="19.58" y1="20.13" x2="22.42" y2="20.13"/><line class="cls-4" x1="24.17" y1="22.93" x2="30.26" y2="22.93"/></g><g id="Calque_2" data-name="Calque 2"><rect class="cls-2" x="951.12" y="569.43" width="17.77" height="17.77" rx="8.88" ry="8.88" transform="translate(-1062.53 290.01) rotate(-45)"/><rect class="cls-7" x="951.82" y="570.13" width="16.37" height="16.37" rx="8.18" ry="8.18" transform="translate(-1062.53 290.02) rotate(-45)"/><circle class="cls-4" cx="25.24" cy="20.13" r="5.66"/><rect class="cls-8" x="26.37" y="19.64" width="1.69" height="7.2"/><rect class="cls-8" x="18.88" y="16.04" width="7.51" height="3.59"/><rect class="cls-8" x="22.94" y="19.25" width="9.16" height="3.18"/><circle class="cls-9" cx="25.24" cy="20.13" r="2.82"/><line class="cls-4" x1="27.53" y1="15.03" x2="27.53" y2="18.41"/><line class="cls-4" x1="25.24" y1="14.34" x2="25.24" y2="17.72"/><line class="cls-4" x1="24.17" y1="22.64" x2="24.17" y2="26.02"/><line class="cls-4" x1="19.58" y1="20.13" x2="22.42" y2="20.13"/><line class="cls-4" x1="24.17" y1="22.93" x2="30.26" y2="22.93"/></g></g></svg>