<?xml version="1.0" encoding="utf-8"?>
<!-- Generator: Adobe Illustrator 22.1.0, SVG Export Plug-In . SVG Version: 6.00 Build 0)  -->
<svg version="1.1" id="Calque_1" xmlns="http://www.w3.org/2000/svg" xmlns:xlink="http://www.w3.org/1999/xlink" x="0px" y="0px"
	 viewBox="0 0 28.3 28.3" style="enable-background:new 0 0 28.3 28.3;" xml:space="preserve">
<style type="text/css">
	.st0{fill:#0B3D4E;stroke:#9C7737;stroke-miterlimit:10;}
	.st1{fill:#0B3D4E;stroke:#FFFFFF;stroke-width:0.75;stroke-miterlimit:10;}
	.st2{fill:#0B3D4E;}
</style>
<path d="M26.7,14.5L14.4,26.8c-0.1,0.1-0.2,0.1-0.2,0L1.8,14.5c-0.1-0.1-0.1-0.2,0-0.2L14.2,1.9c0.1-0.1,0.2-0.1,0.2,0l12.3,12.3
	C26.8,14.3,26.8,14.4,26.7,14.5z"/>
<rect x="6.1" y="6.2" transform="matrix(0.7071 -0.7071 0.7071 0.7071 -5.958 14.3129)" class="st0" width="16.4" height="16.4"/>
<rect x="9" y="10.9" class="st1" width="10.5" height="6.8"/>
<rect x="10.9" y="7.6" class="st2" width="6.8" height="13.4"/>
<rect x="12.4" y="6.9" transform="matrix(-1.836970e-16 1 -1 -1.836970e-16 28.6466 5.012255e-02)" class="st2" width="3.8" height="14.8"/>
<circle class="st1" cx="14.3" cy="14.3" r="2.8"/>
</svg>
