{"asset":{"generator":"FBX2glTF v0.9.7","version":"2.0"},"scene":0,"buffers":[{"byteLength":34927128,"uri":"2b251cc0489c30dc3f3c1ff7c96690a8.bin"}],"bufferViews":[{"buffer":0,"byteLength":14615352,"byteOffset":0,"target":34963},{"buffer":0,"byteLength":7616916,"byteOffset":14615352,"target":34962},{"buffer":0,"byteLength":7616916,"byteOffset":22232268,"target":34962},{"buffer":0,"byteLength":5077944,"byteOffset":29849184,"target":34962}],"scenes":[{"name":"Root Scene","nodes":[0]}],"accessors":[{"componentType":5125,"type":"SCALAR","count":3653838,"bufferView":0,"byteOffset":0},{"componentType":5126,"type":"VEC3","count":634743,"bufferView":1,"byteOffset":0,"min":[-2.14163851737976,0.0781755894422531,-1.51390027999878],"max":[2.2773551940918,0.370156854391098,1.05435013771057]},{"componentType":5126,"type":"VEC3","count":634743,"bufferView":2,"byteOffset":0},{"componentType":5126,"type":"VEC2","count":634743,"bufferView":3,"byteOffset":0}],"images":[{"name":"file4","uri":"data:image/png;base64,"}],"samplers":[{}],"textures":[{"name":"file4","sampler":0,"source":0}],"materials":[{"name":"M_Carte","alphaMode":"OPAQUE","extras":{"fromFBX":{"shadingModel":"Lambert","isTruePBR":false}},"pbrMetallicRoughness":{"baseColorTexture":{"index":0,"texCoord":0},"baseColorFactor":[0.800000011920929,0.800000011920929,0.800000011920929,1],"metallicFactor":0.200000002980232,"roughnessFactor":0.800000011920929}}],"meshes":[{"name":"World","primitives":[{"material":0,"mode":4,"attributes":{"NORMAL":2,"POSITION":1,"TEXCOORD_0":3},"indices":0}]}],"nodes":[{"name":"RootNode","translation":[0,0,0],"rotation":[0,0,0,1],"scale":[1,1,1],"children":[1]},{"name":"World","translation":[0,0,0],"rotation":[0,0,0,1],"scale":[1,1,1],"mesh":0}]}